<?xml version="1.0" standalone="no"?>
<!DOCTYPE svg PUBLIC "-//W3C//DTD SVG 20010904//EN"
 "http://www.w3.org/TR/2001/REC-SVG-20010904/DTD/svg10.dtd">
<svg version="1.0" xmlns="http://www.w3.org/2000/svg"
 width="277.883686pt" height="164.348742pt" viewBox="0 0 277.883686 164.348742"
 preserveAspectRatio="xMidYMid meet">
<metadata>
Created by potrace 1.16, written by Peter Selinger 2001-2019
</metadata>
<g transform="translate(-8.094274,172.888894) scale(0.100000,-0.100000)"
fill="#000000" stroke="none">
<path d="M706 1713 c-50 -15 -49 -33 2 -33 12 0 22 -4 22 -10 0 -5 -18 -10
-40 -10 -38 0 -40 2 -40 31 l0 31 -62 -7 c-35 -4 -71 -11 -80 -16 -24 -13 -23
-49 1 -49 15 0 18 -7 15 -42 -1 -24 -3 -114 -3 -200 -1 -149 -2 -158 -20 -158
-11 0 -23 5 -27 12 -4 6 -3 8 2 5 6 -3 16 -2 24 3 10 6 7 10 -15 16 l-29 7 25
10 24 9 -27 12 c-24 10 -25 13 -10 23 16 11 16 12 0 12 -9 1 -20 5 -23 11 -3
5 0 7 9 4 8 -3 23 -1 33 4 16 9 15 11 -10 17 -29 8 -35 23 -15 43 9 9 8 12 -6
12 -13 0 -16 5 -11 20 4 14 2 20 -9 20 -9 0 -13 6 -10 14 3 8 1 17 -5 21 -6 3
-11 2 -11 -4 0 -5 -7 -17 -16 -26 -13 -12 -14 -19 -4 -30 12 -15 3 -21 -25
-15 -5 1 -2 -7 8 -18 17 -19 17 -20 -13 -26 -34 -6 -32 -26 3 -27 21 0 21 -1
2 -9 -19 -8 -19 -8 5 -18 25 -11 24 -11 -7 -11 -38 -1 -44 -16 -11 -27 21 -6
20 -7 -8 -19 -16 -8 -23 -14 -16 -14 18 -1 15 -21 -4 -21 -13 0 -14 -3 -5 -14
14 -17 -20 -33 -41 -20 -9 6 -9 3 1 -9 7 -9 20 -17 28 -17 8 0 11 -5 8 -10 -4
-6 -10 -8 -15 -5 -4 3 -16 2 -26 -2 -16 -6 -16 -7 0 -19 19 -13 15 -18 -28
-28 -36 -9 -18 -25 20 -18 17 3 24 0 24 -12 0 -9 -8 -16 -20 -16 -11 0 -20 -4
-20 -10 0 -13 46 -24 62 -14 10 5 10 4 1 -6 -7 -7 -30 -11 -61 -9 -56 4 -55
-12 2 -36 l29 -12 -37 -7 c-20 -4 -42 -4 -49 -1 -6 4 0 -5 15 -18 31 -29 27
-37 -19 -37 -18 0 -33 -4 -33 -9 0 -11 25 -21 51 -21 10 0 19 -4 19 -9 0 -12
-84 -26 -99 -16 -6 3 -11 2 -11 -4 0 -6 12 -18 27 -28 16 -9 30 -18 32 -20 2
-1 -11 -20 -28 -42 -69 -87 -87 -171 -54 -267 20 -60 131 -174 210 -217 l52
-28 103 21 c128 26 193 48 332 112 176 80 305 95 561 63 311 -39 460 -15 880
140 83 30 200 67 260 81 127 30 165 43 165 55 0 5 -12 9 -27 9 l-28 1 29 12
29 13 -52 14 c-29 8 -55 18 -58 23 -3 5 -14 -1 -23 -13 -14 -19 -30 -24 -76
-28 l-59 -4 3 141 c2 121 0 142 -14 148 -25 9 -36 -12 -39 -75 -2 -33 -8 -69
-15 -81 -6 -12 -13 -49 -15 -83 -2 -43 -8 -64 -20 -70 -24 -14 -50 -5 -50 17
-1 43 -17 125 -25 125 -9 0 -24 -115 -18 -139 3 -13 -58 -38 -69 -27 -2 2 -6
28 -7 58 -1 29 -9 64 -16 78 -8 14 -13 35 -11 47 3 32 -18 103 -32 103 -19 0
15 27 43 33 31 8 62 -9 42 -22 -14 -8 -11 -45 11 -126 l10 -40 13 60 c7 33 13
72 14 88 0 23 4 27 29 27 27 0 29 -3 36 -57 12 -101 21 -104 35 -16 7 45 9 86
6 91 -9 15 16 28 49 27 17 -1 35 1 40 5 14 9 65 11 77 4 6 -4 6 -9 -2 -14 -8
-5 -13 -28 -12 -56 0 -27 0 -86 1 -131 0 -68 2 -83 15 -83 20 0 36 31 36 69 0
24 4 31 19 31 16 0 19 -7 18 -36 -2 -45 17 -60 59 -49 21 6 24 9 12 12 -24 6
-23 14 10 40 l27 22 -27 1 c-32 0 -37 16 -8 25 25 8 26 25 1 25 -35 0 -44 25
-13 39 l27 13 -38 15 c-21 9 -36 21 -35 29 2 7 -6 20 -17 29 -19 15 -19 15 5
11 14 -2 37 2 50 10 l25 13 -23 1 c-13 0 -35 11 -50 25 -26 24 -26 25 -5 25
30 0 39 18 11 22 -25 3 -38 28 -14 28 8 0 18 5 21 10 4 6 3 10 -2 9 -21 -4
-43 2 -43 11 0 5 6 7 14 4 28 -11 27 16 -1 28 -25 10 -26 12 -8 16 33 7 38 19
11 26 -26 7 -36 26 -13 26 6 0 1 9 -12 19 l-25 19 26 -5 c31 -6 49 16 20 24
-23 6 -39 36 -23 41 18 6 12 19 -11 25 -18 5 -19 8 -8 22 11 14 11 18 1 25 -8
4 -10 13 -7 19 5 7 -3 11 -20 11 -22 0 -25 -2 -14 -15 10 -12 10 -15 -4 -15
-18 0 -22 -15 -6 -25 17 -11 11 -25 -12 -25 -20 0 -21 -1 -3 -20 19 -21 15
-25 -35 -33 -24 -3 -24 -4 9 -19 29 -13 32 -17 15 -21 -18 -5 -17 -5 3 -12 28
-9 20 -25 -13 -25 -29 0 -32 -16 -4 -25 28 -9 25 -25 -5 -25 -29 0 -34 -16 -7
-23 14 -4 13 -6 -6 -12 -18 -6 -20 -10 -11 -21 9 -11 9 -14 0 -14 -7 0 -9 -5
-5 -11 5 -8 -1 -10 -20 -7 -21 4 -24 3 -15 -8 6 -8 18 -14 25 -14 8 0 14 -4
14 -10 0 -5 -16 -10 -36 -10 -31 0 -35 -2 -24 -15 11 -13 10 -14 -11 -6 -13 5
-23 16 -23 25 1 8 -7 18 -17 21 -25 8 -25 25 0 18 11 -3 28 0 38 6 10 6 13 11
7 11 -6 0 -23 11 -38 24 l-28 23 24 7 23 7 -25 10 c-24 10 -24 11 -7 24 17 13
17 14 -5 21 l-23 7 25 10 25 9 -30 14 c-18 8 -23 13 -13 14 30 0 30 20 1 31
-26 10 -27 12 -8 19 19 8 19 8 -5 18 l-25 11 27 0 c24 1 53 21 29 21 -20 0
-42 32 -31 45 8 9 6 14 -5 19 -11 4 -14 13 -10 26 4 12 2 20 -5 20 -7 0 -10 6
-7 13 2 6 -2 18 -9 25 -14 13 -19 0 -15 -37 2 -8 -2 -10 -10 -6 -9 6 -10 1 -5
-19 5 -20 3 -26 -10 -26 -14 0 -14 -3 -4 -15 16 -19 11 -24 -23 -27 -34 -3
-35 -16 -2 -24 14 -3 25 -10 25 -16 0 -5 -6 -6 -12 -3 -7 4 -5 0 6 -9 18 -14
17 -15 -8 -22 -32 -8 -33 -19 -3 -28 l22 -7 -25 -12 c-35 -16 -36 -17 -20 -27
13 -8 12 -10 -2 -10 -21 0 -24 -16 -5 -23 9 -4 9 -6 -1 -6 -7 -1 -10 -6 -6
-12 5 -8 -1 -10 -20 -7 -21 4 -24 3 -15 -8 6 -8 18 -14 26 -14 8 0 11 -4 8
-10 -10 -16 -45 -12 -68 8 -23 18 -28 42 -12 54 6 4 1 8 -10 8 -11 0 -15 4
-10 8 17 12 14 42 -4 43 -12 0 -12 2 -2 6 11 5 11 7 0 14 -11 7 -9 9 5 9 19 0
19 0 1 13 -10 8 -15 19 -11 25 4 7 3 12 -3 12 -6 0 -8 6 -5 14 7 19 -16 32
-26 15 -5 -7 -6 -17 -4 -21 3 -4 1 -8 -5 -8 -6 0 -8 -7 -5 -15 4 -10 0 -15
-11 -15 -15 0 -15 -1 0 -16 12 -13 13 -19 4 -24 -6 -4 -8 -13 -5 -19 4 -6 2
-11 -4 -11 -6 0 -8 -4 -5 -10 3 -5 1 -10 -5 -10 -6 0 -9 -4 -5 -9 3 -5 0 -13
-6 -17 -8 -4 -7 -9 2 -15 10 -6 5 -9 -14 -9 -82 0 -225 185 -273 356 -20 67
-31 75 -79 54 -19 -8 -19 -9 1 -9 14 -1 24 -9 28 -23 9 -35 8 -38 -18 -38 -25
0 -36 21 -36 69 0 22 -3 23 -37 17 -21 -3 -46 -6 -55 -6 -11 0 -18 -8 -18 -20
0 -11 5 -20 10 -20 6 0 10 -21 10 -47 0 -52 10 -53 14 -1 2 18 4 39 5 46 0 6
8 12 17 12 8 0 12 -5 9 -10 -4 -6 -1 -17 5 -25 7 -8 9 -23 5 -32 -6 -17 -7
-17 -16 0 -6 9 -7 22 -4 27 3 6 1 10 -4 10 -14 0 -14 -16 0 -41 11 -22 -13
-75 -30 -65 -5 3 -10 -51 -13 -120 -4 -93 -9 -128 -19 -135 -20 -12 -106 -11
-114 1 -4 7 2 9 19 4 16 -4 32 -1 41 6 23 19 18 27 -15 22 -34 -5 -41 13 -10
23 24 8 50 32 50 48 0 8 -4 7 -12 -1 -7 -7 -21 -12 -32 -12 -19 1 -19 1 -3 11
21 12 23 31 3 23 -8 -3 -23 -1 -33 5 -10 6 -13 11 -6 11 14 0 43 28 43 40 0 6
-11 5 -26 0 -27 -11 -26 -3 4 32 13 15 12 18 -13 24 -23 6 -25 8 -11 16 24 13
20 27 -6 21 -15 -3 -19 -2 -11 4 10 7 10 13 -2 29 -13 18 -14 18 -15 1 0 -10
-4 -15 -10 -12 -6 3 -7 -1 -4 -9 3 -9 1 -16 -5 -16 -6 0 -8 -7 -4 -17 4 -11 3
-14 -5 -9 -16 10 -15 -7 1 -23 10 -10 8 -11 -8 -6 -17 6 -16 3 5 -15 14 -12
19 -19 13 -15 -7 3 -22 8 -33 10 -24 5 -28 -23 -5 -31 17 -7 18 -13 6 -33 -7
-10 -13 -11 -30 -2 -11 7 -21 8 -21 3 0 -17 37 -42 61 -42 22 -1 22 -2 6 -11
-18 -11 -32 -9 -70 6 -17 7 -18 6 -6 -14 8 -11 21 -21 31 -21 9 0 20 -4 23
-10 3 -6 -1 -7 -10 -4 -24 10 -8 -21 18 -34 12 -6 16 -11 9 -11 -7 -1 -22 4
-33 9 -21 12 -26 1 -7 -18 16 -16 -1 -15 -34 2 -22 12 -28 12 -28 2 0 -17 38
-35 78 -38 17 -1 32 -6 32 -11 0 -5 -18 -7 -40 -4 -45 6 -51 -3 -17 -26 17
-12 18 -16 6 -16 -23 -1 -99 56 -99 74 0 9 -9 15 -22 15 -21 1 -22 2 -5 14 22
17 22 22 -5 31 -21 7 -22 7 -4 12 18 5 18 6 -5 19 l-24 13 30 1 30 0 -23 18
c-15 12 -21 24 -16 35 4 10 1 17 -6 17 -7 0 -10 8 -7 20 3 11 1 20 -5 20 -6 0
-8 7 -4 15 4 10 -1 15 -14 15 -13 0 -18 -5 -14 -15 4 -8 2 -15 -4 -15 -6 0 -8
-9 -5 -20 4 -15 0 -20 -13 -20 -18 -1 -18 -1 0 -15 18 -14 18 -15 1 -21 -12
-5 -23 -1 -33 12 -27 36 -82 163 -105 244 -12 44 -26 79 -32 79 -5 -1 -32 -8
-59 -16z m-118 -73 c-15 -23 -24 -25 -32 -7 -4 6 -4 2 -2 -9 2 -12 0 -28 -5
-35 -6 -10 -9 -4 -9 17 0 34 15 54 42 54 16 0 16 -3 6 -20z m161 -27 c8 -21
16 -44 18 -50 4 -9 -8 -13 -40 -13 -45 0 -45 0 -56 44 -6 25 -11 47 -11 50 0
3 17 6 38 6 35 0 39 -3 51 -37z m-126 0 c3 -15 -1 -36 -8 -46 -13 -18 -14 -18
-24 1 -14 27 -14 45 1 60 18 18 25 15 31 -15z m960 -42 c22 -62 22 -61 -8 -61
-26 0 -37 15 -53 73 -10 36 -10 37 16 37 24 0 30 -7 45 -49z m-93 -1 c0 -16
-4 -30 -9 -30 -10 0 -22 40 -15 52 11 18 24 6 24 -22z m-919 -61 c-29 -39 -26
-51 4 -15 l24 30 17 -37 18 -37 -30 -40 c-16 -23 -33 -42 -38 -43 -13 -3 -37
71 -25 79 5 3 7 15 3 27 -10 30 -7 67 8 95 l12 23 14 -27 c13 -24 12 -29 -7
-55z m898 11 c1 -8 -11 -28 -25 -43 -23 -25 -24 -31 -14 -63 10 -29 9 -39 -4
-59 -21 -31 -28 -32 -20 -1 3 12 6 54 7 93 2 78 33 147 48 108 4 -11 8 -27 8
-35z m-829 -2 l-1 -43 -15 28 c-16 29 -13 57 6 57 5 0 10 -19 10 -42z m168
-43 l32 -65 -49 0 -48 0 -26 58 c-29 67 -28 72 21 72 36 0 39 -2 70 -65z m704
-11 c-5 -9 -8 -1 -9 23 -1 33 0 35 8 15 5 -13 5 -30 1 -38z m-22 0 c0 -49 -42
-85 -53 -45 -5 19 28 81 44 81 5 0 9 -16 9 -36z m137 13 c19 -41 112 -146 164
-185 41 -30 46 -38 32 -44 -14 -5 -12 -7 8 -7 15 -1 44 -8 65 -17 38 -16 38
-17 15 -25 -13 -5 -33 -7 -45 -4 -46 13 -76 28 -71 35 3 4 -8 10 -23 13 -15 4
-49 26 -77 49 l-49 43 34 6 35 6 -40 2 c-37 1 -43 5 -73 50 -18 28 -36 61 -42
75 -9 25 -8 26 24 26 25 0 35 -6 43 -23z m-935 -85 c-7 -20 -31 25 -31 58 0
23 1 23 18 -10 10 -19 16 -41 13 -48z m847 28 c0 -10 -3 -9 -10 5 -8 17 -9 16
-4 -6 2 -15 -3 -35 -12 -49 l-17 -24 -6 24 c-6 24 2 49 25 76 12 14 25 -1 24
-26z m-899 -44 c0 -38 -6 -61 -19 -77 l-18 -23 -17 32 c-17 32 -16 33 15 77
18 25 34 45 36 45 2 0 3 -24 3 -54z m30 -1 c0 -8 -4 -16 -9 -19 -5 -3 -8 5 -7
18 1 25 16 26 16 1z m205 -12 c16 -21 44 -55 64 -75 30 -33 32 -38 16 -39 -11
0 -30 -2 -41 -3 -12 -1 -30 1 -41 5 -20 7 -113 123 -113 140 0 5 20 9 44 9 39
0 47 -4 71 -37z m592 -65 c2 -95 -18 -158 -52 -158 -24 0 -18 157 7 192 11 16
24 26 29 23 5 -4 9 3 9 14 0 12 1 21 3 21 1 0 3 -41 4 -92z m-917 52 c0 -10
-4 -22 -10 -25 -6 -4 -10 7 -10 25 0 18 4 29 10 25 6 -3 10 -15 10 -25z m171
9 c6 -12 13 -37 15 -57 l4 -37 -25 48 c-14 26 -23 52 -20 57 9 14 13 13 26
-11z m829 -29 c0 -28 -33 -84 -43 -73 -4 3 -7 -3 -7 -15 0 -11 5 -24 10 -27
22 -13 -4 -75 -32 -75 -13 0 -9 40 5 54 8 8 12 35 11 72 -1 45 3 66 18 87 23
32 38 23 38 -23z m54 -35 c-13 -33 -30 -9 -25 34 2 7 -2 10 -8 6 -7 -4 -11 4
-11 21 0 27 0 27 25 -10 13 -20 22 -43 19 -51z m-909 24 c16 -30 15 -32 -12
-72 l-28 -42 -3 52 c-3 45 9 93 23 93 3 0 12 -14 20 -31z m-115 -29 c11 -28
10 -34 -16 -72 l-29 -42 -3 52 c-5 82 24 119 48 62z m989 -42 c-12 -22 -12
-22 -20 -3 -6 16 -8 13 -8 -13 -1 -19 -5 -31 -11 -27 -17 10 -11 41 13 67 26
30 45 12 26 -24z m70 39 c8 -10 7 -17 -1 -25 -6 -6 -11 -28 -11 -49 0 -21 -2
-29 -4 -18 -3 10 -12 29 -20 41 -12 19 -12 26 -1 43 15 24 22 26 37 8z m-1000
-44 l0 -48 -16 32 c-13 26 -14 35 -3 48 18 22 20 20 19 -32z m150 -24 c-15
-28 -29 -14 -29 29 l1 37 19 -23 c15 -19 17 -28 9 -43z m-51 -58 c-1 -70 -8
-90 -32 -91 -4 0 -1 12 9 26 9 14 14 28 11 31 -2 3 -11 -4 -18 -16 -18 -30
-24 -27 -43 23 l-17 43 33 47 c44 62 59 45 57 -63z m652 73 c0 -19 -5 -24 -25
-24 -17 0 -23 4 -19 14 4 11 0 13 -17 9 -15 -4 -20 -3 -15 5 4 7 18 12 32 12
13 0 24 5 24 11 0 5 5 7 10 4 6 -3 10 -17 10 -31z m280 15 c0 -5 4 -7 10 -4
13 8 -4 -39 -25 -68 -14 -21 -15 -20 -15 15 0 20 3 43 6 52 7 18 24 22 24 5z
m-75 -59 c-3 -10 -14 -25 -25 -35 -20 -18 -20 -17 -20 16 0 19 8 45 17 58 l16
24 9 -23 c5 -13 6 -31 3 -40z m450 44 c14 -9 32 -14 40 -10 9 3 13 2 10 -4
-11 -18 -70 -11 -88 10 -22 26 1 28 38 4z m-1525 -9 c0 -8 -6 -15 -14 -15 -20
0 -29 17 -14 23 22 9 28 7 28 -8z m95 -16 c18 -33 17 -35 -33 -98 l-20 -24 -7
21 c-4 14 -11 19 -18 15 -8 -5 -8 -2 0 9 7 8 10 18 6 21 -5 6 44 87 53 87 2 0
11 -14 19 -31z m440 -27 c33 -24 62 -46 64 -48 2 -2 -21 -4 -51 -4 -50 0 -60
4 -117 48 l-62 47 43 5 c50 7 46 8 123 -48z m683 31 c9 -10 22 -18 27 -19 51
-2 124 -34 79 -34 -13 0 -14 -3 -4 -15 10 -13 9 -15 -9 -15 -11 0 -21 -5 -21
-11 0 -20 -28 10 -35 38 -3 14 -8 23 -11 21 -2 -3 0 -17 5 -32 10 -24 8 -26
-13 -26 -18 0 -27 9 -40 40 -27 67 -17 91 22 53z m-907 -9 c18 -16 18 -18 -3
-47 l-21 -29 -14 26 c-10 19 -11 31 -3 46 13 24 18 25 41 4z m-311 -24 c0 -18
-3 -19 -22 -9 -22 12 -22 12 -3 20 11 4 21 8 23 8 1 1 2 -8 2 -19z m1188 -22
c12 -28 11 -28 -28 -28 -46 0 -47 2 -19 42 23 31 28 30 47 -14z m-323 20 c12
-12 -4 -40 -17 -31 -7 4 -23 6 -35 4 -24 -3 -30 8 -13 25 11 11 55 13 65 2z
m223 -36 c-27 -5 -32 2 -16 27 l13 21 12 -23 c10 -19 9 -22 -9 -25z m452 23
c0 -8 -7 -15 -16 -15 -14 0 -14 3 -4 15 7 8 14 15 16 15 2 0 4 -7 4 -15z
m-1270 -47 c0 -18 -26 -36 -36 -25 -3 3 -2 22 2 43 6 34 8 36 20 19 8 -10 14
-27 14 -37z m670 37 c0 -8 -4 -15 -10 -15 -5 0 -7 7 -4 15 4 8 8 15 10 15 2 0
4 -7 4 -15z m69 -14 c-15 -5 -22 6 -14 19 6 9 10 9 16 -1 5 -8 4 -15 -2 -18z
m-889 -35 c0 -47 -3 -54 -22 -60 -44 -11 -50 20 -15 70 17 24 32 44 34 44 2 0
3 -24 3 -54z m215 23 c-4 -5 -13 -9 -22 -9 -13 0 -13 3 -3 15 13 15 35 11 25
-6z m-335 -10 c0 -11 -3 -11 -24 -3 -23 9 -20 23 4 17 11 -3 20 -9 20 -14z
m1566 -4 c-24 -18 -33 -19 -42 -3 -5 7 -2 9 8 6 8 -4 21 -2 29 3 22 14 26 10
5 -6z m-1412 -47 c-12 -19 -24 -5 -24 25 l1 32 13 -25 c8 -14 12 -28 10 -32z
m543 26 c29 -10 53 -22 53 -26 0 -25 -164 5 -205 37 -19 15 -16 15 40 12 33
-2 84 -13 112 -23z m-664 -4 c3 -13 0 -20 -9 -20 -8 0 -14 9 -14 20 0 11 4 20
9 20 5 0 11 -9 14 -20z m906 -24 c-11 -9 -119 -15 -119 -6 0 6 27 10 62 10 34
0 59 -2 57 -4z m-889 -25 c0 -5 -7 -11 -15 -15 -15 -5 -20 5 -8 17 9 10 23 9
23 -2z m1267 -25 c35 -31 40 -110 9 -145 -18 -19 -18 -22 -3 -39 45 -49 42
-121 -7 -178 -30 -35 -36 -38 -99 -40 -36 -2 -69 1 -72 6 -3 6 -1 10 4 10 16
0 14 163 -1 178 -9 9 -9 15 0 24 14 14 16 136 3 157 -5 7 -14 10 -20 7 -6 -4
-11 -3 -11 3 0 13 36 24 58 17 9 -3 28 1 42 9 37 21 65 18 97 -9z m178 0 c13
-13 27 -37 30 -53 4 -15 10 -38 15 -49 11 -28 -20 -157 -45 -184 -25 -27 -71
-26 -89 3 -31 47 -45 133 -32 185 17 61 31 87 58 106 30 21 35 20 63 -8z
m-451 -68 c21 -29 20 -68 0 -97 -16 -22 -16 -24 0 -33 12 -7 16 -24 16 -68 0
-33 4 -60 10 -60 17 0 11 -19 -9 -30 -38 -20 -51 -3 -51 66 l0 64 -30 0 c-30
0 -30 0 -30 -59 0 -46 4 -60 17 -65 23 -9 5 -22 -39 -29 -36 -5 -59 5 -39 17
13 9 12 276 -1 276 -7 0 -6 5 1 14 7 8 20 12 30 9 10 -3 22 0 25 6 13 21 84
13 100 -11z m-184 -50 c0 -54 -26 -70 -32 -20 -2 21 -8 27 -28 27 -23 0 -25
-4 -28 -47 -3 -42 -1 -48 17 -48 10 0 22 6 24 13 3 6 6 -5 6 -25 1 -20 -4 -40
-11 -44 -7 -4 -8 -3 -4 4 5 8 0 12 -13 12 -19 0 -21 -6 -21 -55 0 -40 4 -57
15 -61 23 -9 45 15 45 47 0 19 5 29 15 29 10 0 15 -10 15 -34 0 -51 -46 -87
-106 -82 -39 3 -76 16 -46 16 14 0 14 260 0 278 -6 6 -9 12 -7 13 2 0 24 6 49
13 25 6 60 11 77 11 33 0 33 -1 33 -47z m-180 -2 c0 -29 -3 -33 -20 -29 -11 3
-31 2 -44 -1 -25 -6 -25 -7 -25 -131 0 -87 4 -125 12 -125 22 0 -8 -17 -40
-23 -31 -6 -53 5 -34 17 5 4 9 60 10 126 l0 120 -29 0 c-16 0 -36 -7 -44 -16
-18 -17 -17 -18 -22 16 -4 33 5 59 14 43 9 -14 187 8 204 25 17 17 18 16 18
-22z m-253 -67 c2 -39 0 -48 -17 -52 -17 -4 -20 0 -20 29 0 39 -21 54 -46 33
-21 -17 -14 -61 12 -74 75 -37 98 -133 45 -186 -35 -34 -59 -36 -95 -8 -20 16
-26 29 -26 60 0 21 2 39 4 39 2 0 11 3 20 6 11 4 15 -4 18 -38 2 -36 7 -44 25
-46 17 -3 26 3 33 23 12 32 -2 65 -28 65 -28 1 -72 68 -72 110 0 58 36 91 97
88 l48 -2 2 -47z m-171 -55 c-9 -25 -26 -15 -26 15 0 30 -19 45 -45 35 -21 -8
-21 -104 0 -104 7 0 19 8 24 18 8 14 10 10 11 -20 0 -36 -14 -60 -22 -36 -2 6
-10 8 -16 4 -14 -9 -16 -112 -2 -121 20 -12 50 15 50 45 0 20 5 30 15 30 25 0
18 -54 -11 -83 -22 -22 -35 -26 -80 -26 -45 1 -53 4 -43 15 7 8 9 36 5 76 -3
35 -5 70 -4 78 0 8 1 37 1 63 1 31 -3 51 -12 56 -24 15 19 30 102 36 21 1 41
6 45 10 8 8 16 -71 8 -91z m-194 54 c-14 -14 -16 -124 -2 -133 7 -4 7 -12 0
-25 -18 -33 -13 -128 7 -139 15 -8 14 -10 -12 -16 -17 -4 -37 -9 -47 -11 -18
-5 -34 11 -19 21 6 3 8 27 6 53 -2 26 -4 53 -4 60 -1 6 -12 12 -26 12 -24 0
-25 -2 -25 -64 0 -37 5 -68 11 -72 18 -11 -6 -21 -54 -22 -23 -1 -37 2 -30 6
16 10 17 292 0 292 -7 0 -7 3 -1 9 15 14 82 23 89 11 3 -5 1 -10 -4 -10 -7 0
-11 -23 -11 -55 0 -52 1 -55 26 -55 25 0 25 1 23 67 -2 64 -1 68 22 74 42 12
65 11 51 -3z m-232 -13 c15 9 21 -57 11 -127 -1 -5 -10 -8 -21 -8 -16 0 -20 7
-20 31 0 37 -16 69 -35 69 -8 0 -19 -9 -25 -19 -14 -27 -13 -134 2 -149 9 -9
9 -18 0 -37 -16 -35 -15 -97 2 -120 14 -19 15 -19 35 -1 14 12 21 31 21 53 0
30 3 34 23 31 35 -5 27 -74 -13 -110 -57 -53 -113 -21 -140 78 -7 27 -17 54
-22 61 -6 7 -6 19 0 30 5 10 12 41 15 70 12 105 74 175 135 152 13 -5 27 -7
32 -4z"/>
<path d="M1431 1269 c-13 -17 -21 -32 -19 -35 3 -2 15 10 27 27 13 17 21 32
19 35 -3 2 -15 -10 -27 -27z"/>
<path d="M1757 984 c-14 -14 -8 -124 7 -124 25 0 37 28 34 77 -3 46 -21 67
-41 47z"/>
<path d="M1762 798 c-7 -7 -12 -39 -12 -75 0 -61 1 -63 25 -63 26 0 26 1 23
72 -3 71 -13 89 -36 66z"/>
<path d="M1957 993 c-9 -14 -6 -228 3 -243 7 -11 11 -11 24 -1 23 20 18 244
-6 249 -9 2 -18 -1 -21 -5z"/>
<path d="M1483 933 c-8 -3 -13 -24 -13 -55 0 -45 2 -49 22 -46 26 3 40 50 27
86 -8 22 -14 25 -36 15z"/>
<path d="M2447 655 c-21 -8 -73 -42 -115 -76 -123 -99 -205 -127 -392 -130
-121 -2 -151 -16 -40 -19 52 -1 115 -1 140 0 54 1 222 59 384 130 138 61 227
76 284 46 31 -16 163 -35 151 -22 -3 3 -53 22 -110 42 -123 42 -240 53 -302
29z"/>
<path d="M2512 544 c-58 -15 -72 -21 -152 -70 -61 -37 -116 -53 -184 -56 -34
-2 -41 -5 -29 -12 22 -12 201 0 249 18 22 8 65 30 98 49 69 43 115 52 258 52
58 0 105 2 103 4 -2 2 -30 10 -62 17 -74 18 -213 17 -281 -2z"/>
<path d="M1109 440 c-67 -11 -157 -44 -264 -97 -116 -58 -140 -64 -287 -67
-148 -3 -204 -15 -245 -51 l-28 -24 57 6 c37 4 92 -1 154 -12 116 -22 193 -14
349 35 109 35 307 111 302 116 -1 2 -39 -8 -82 -22 -205 -65 -394 -101 -451
-85 -24 6 -15 9 47 15 105 9 203 38 324 95 130 61 200 74 407 75 100 1 156 4
140 9 -41 12 -359 17 -423 7z"/>
<path d="M2460 385 c-195 -47 -349 -54 -547 -24 -246 38 -468 27 -659 -32 -91
-28 -75 -34 27 -9 121 28 275 44 329 33 42 -9 38 -10 -63 -16 -61 -5 -147 -18
-200 -33 -256 -69 -366 -95 -500 -115 -81 -13 -147 -26 -147 -30 0 -9 192 -44
330 -61 154 -19 554 -16 715 6 328 43 625 145 760 261 44 37 38 40 -45 20z"/>
</g>
</svg>
